<svg width="32" height="32" viewBox="0 0 32 32" fill="none" xmlns="http://www.w3.org/2000/svg">
  <!-- House base -->
  <path d="M6 14L16 6L26 14V26C26 27.1046 25.1046 28 24 28H8C6.89543 28 6 27.1046 6 26V14Z" fill="#3B82F6" stroke="#1E40AF" stroke-width="1.5"/>
  
  <!-- Roof -->
  <path d="M4 16L16 6L28 16" stroke="#1E40AF" stroke-width="2" stroke-linecap="round" stroke-linejoin="round"/>
  
  <!-- Door -->
  <path d="M13 28V20C13 19.4477 13.4477 19 14 19H18C18.5523 19 19 19.4477 19 20V28" fill="#1E40AF"/>
  
  <!-- Windows -->
  <circle cx="11" cy="16" r="2" fill="#60A5FA"/>
  <circle cx="21" cy="16" r="2" fill="#60A5FA"/>
  
  <!-- Smart home elements -->
  <circle cx="20" cy="12" r="1.5" fill="#10B981"/>
  <circle cx="12" cy="12" r="1.5" fill="#F59E0B"/>
  
  <!-- Wi-Fi signal -->
  <path d="M24 10C24.5523 10 25 9.55228 25 9C25 8.44772 24.5523 8 24 8C23.4477 8 23 8.44772 23 9C23 9.55228 23.4477 10 24 10Z" fill="#10B981"/>
  <path d="M22.5 8.5C23.3284 8.5 24 7.82843 24 7C24 6.17157 23.3284 5.5 22.5 5.5C21.6716 5.5 21 6.17157 21 7C21 7.82843 21.6716 8.5 22.5 8.5Z" fill="#10B981" opacity="0.7"/>
  <path d="M26.5 8.5C27.3284 8.5 28 7.82843 28 7C28 6.17157 27.3284 5.5 26.5 5.5C25.6716 5.5 25 6.17157 25 7C25 7.82843 25.6716 8.5 26.5 8.5Z" fill="#10B981" opacity="0.7"/>
</svg>
